<svg width="47" height="15" viewBox="0 0 47 15" fill="none" xmlns="http://www.w3.org/2000/svg">
<path fill-rule="evenodd" clip-rule="evenodd" d="M5.4 0.08C7.14668 0.08 8.49666 0.493329 9.45 1.32C10.4033 2.14667 10.88 3.30666 10.88 4.8C10.88 6.36001 10.4 7.57 9.44 8.43C8.47999 9.29 7.13334 9.72 5.4 9.72H1.92V14.08H0V0.08H5.4ZM5.32 7.98C6.52001 7.98 7.44 7.71667 8.08 7.19C8.72 6.66333 9.04 5.88667 9.04 4.86C9.04 3.86 8.72 3.10334 8.08 2.59C7.44 2.07666 6.52001 1.82 5.32 1.82L1.92 1.84V7.98H5.32ZM15.2314 7.36H30.2314V8.68H15.2314V7.36ZM36.8686 11.68C37.3219 11.96 37.8252 12.1767 38.3786 12.33C38.9319 12.4833 39.4819 12.56 40.0286 12.56C41.3619 12.56 42.3852 12.09 43.0986 11.15C43.8119 10.21 44.1686 8.92667 44.1686 7.3C44.1686 7.04667 44.1619 6.85333 44.1486 6.72C43.8152 7.49334 43.3052 8.08 42.6186 8.48C41.9319 8.88 41.1019 9.08 40.1286 9.08C38.7419 9.08 37.6486 8.68 36.8486 7.88C36.0486 7.08 35.6486 6.00001 35.6486 4.64C35.6486 3.69333 35.8486 2.87 36.2486 2.17C36.6486 1.47 37.2119 0.933335 37.9386 0.56C38.6652 0.186665 39.5086 0 40.4686 0C41.6152 0 42.6086 0.266664 43.4486 0.8C44.2886 1.33334 44.9319 2.10666 45.3786 3.12C45.8252 4.13334 46.0486 5.34666 46.0486 6.76C46.0486 8.24001 45.8086 9.53999 45.3286 10.66C44.8486 11.78 44.1619 12.6467 43.2686 13.26C42.3752 13.8733 41.3352 14.18 40.1486 14.18C39.4952 14.18 38.8019 14.0833 38.0686 13.89C37.3352 13.6967 36.6819 13.4467 36.1086 13.14L36.8686 11.68ZM40.5886 1.66C39.6419 1.66 38.8819 1.92666 38.3086 2.46C37.7352 2.99334 37.4486 3.72666 37.4486 4.66C37.4486 5.54 37.7219 6.24 38.2686 6.76C38.8152 7.28 39.5486 7.54 40.4686 7.54C41.1486 7.54 41.7386 7.40333 42.2386 7.13C42.7386 6.85667 43.1219 6.49 43.3886 6.03C43.6552 5.57 43.7886 5.07334 43.7886 4.54C43.7886 4.08666 43.6719 3.63667 43.4386 3.19C43.2052 2.74333 42.8486 2.37667 42.3686 2.09C41.8886 1.80333 41.2952 1.66 40.5886 1.66Z" fill="white"/>
</svg>
